<svg viewBox="0 0 64 64" fill="none" xmlns="http://www.w3.org/2000/svg"><path d="M19.402 44.698l-1.044.585.744-.931a34.207 34.207 0 007.658-21.04l.018-1.199.429 1.118a34.228 34.228 0 0014.416 17.152l1.027.613-1.183-.19a34.217 34.217 0 00-22.065 3.892z" fill="#190D94"/><path d="M36.363 36.519c-6.491-9.146-5.378-14.36-3.573-21.327 2.14-8.262-2.922-16.46-11.78-14.03-3.928 1.08-5.315 3.751-5.806 5.627-2.404 9.043 11.855 22.515 21.159 29.73zM9.368 43.545C1.145 45.823-3.425 54.31 3.109 60.763c2.895 2.858 5.902 2.724 7.773 2.233 9.032-2.445 13.568-21.531 15.168-33.194-4.676 10.178-9.73 11.823-16.682 13.743zM61.718 38.62c-6.634-6.596-25.431-.984-36.33 3.463 11.164-1.045 15.124 2.522 20.255 7.567 6.084 5.986 15.715 5.699 18.04-3.187 1.013-3.938-.606-6.475-1.965-7.843z" fill="#5E5CEB"/></svg>